<svg width="32" height="32" viewBox="0 0 32 32" fill="none" xmlns="http://www.w3.org/2000/svg">
  <rect width="32" height="32" rx="8" fill="#8F221B"/>
  <path d="M22 10H10C8.89543 10 8 10.8954 8 12V18C8 20.2091 9.79086 22 12 22H18C20.2091 22 22 20.2091 22 18V12C22 10.8954 21.1046 10 20 10" stroke="white" stroke-width="2" stroke-linecap="round"/>
  <path d="M22 13H23C24.1046 13 25 13.8954 25 15C25 16.1046 24.1046 17 23 17H22" stroke="white" stroke-width="2" stroke-linecap="round"/>
  <path d="M11 7V9" stroke="white" stroke-width="1.5" stroke-linecap="round"/>
  <path d="M15 6V9" stroke="white" stroke-width="1.5" stroke-linecap="round"/>
  <path d="M19 7V9" stroke="white" stroke-width="1.5" stroke-linecap="round"/>
</svg>
